<?xml version="1.0" standalone="no"?>
<!DOCTYPE svg PUBLIC "-//W3C//DTD SVG 20010904//EN"
 "http://www.w3.org/TR/2001/REC-SVG-20010904/DTD/svg10.dtd">
<svg version="1.0" xmlns="http://www.w3.org/2000/svg"
 width="1123.000000pt" height="1123.000000pt" viewBox="0 0 1123.000000 1123.000000"
 preserveAspectRatio="xMidYMid meet">
<metadata>
Created by potrace 1.14, written by Peter Selinger 2001-2017
</metadata>
<g transform="translate(0.000000,1123.000000) scale(0.100000,-0.100000)"
fill="#000000" stroke="none">
<path d="M5498 11185 c-2 -1 -50 -5 -108 -9 -58 -3 -116 -8 -130 -11 -14 -3
-45 -7 -70 -10 -25 -3 -56 -8 -70 -10 -14 -3 -38 -7 -55 -10 -34 -6 -37 -6
-165 -34 -52 -12 -106 -25 -120 -30 -19 -7 -180 -58 -210 -66 -3 -1 -14 -5
-25 -10 -11 -4 -65 -25 -120 -47 -55 -22 -104 -44 -110 -48 -5 -5 -13 -9 -17
-10 -22 -3 -84 -34 -90 -44 -4 -6 -8 -7 -8 -3 0 20 -428 -237 -438 -264 -2 -5
-9 -9 -15 -9 -17 -1 -215 -160 -298 -240 -26 -25 -58 -54 -70 -66 -56 -49
-197 -204 -276 -304 -81 -101 -186 -251 -223 -317 -13 -24 -27 -43 -32 -43 -4
0 -8 -9 -8 -19 0 -11 -4 -22 -9 -26 -11 -6 -18 -19 -105 -195 -35 -69 -68
-141 -76 -160 -7 -19 -20 -53 -30 -75 -29 -66 -121 -357 -135 -425 -3 -14 -14
-68 -25 -120 -32 -156 -38 -199 -56 -405 -11 -123 -11 -365 -1 -365 5 0 4 -6
-2 -13 -6 -8 -9 -16 -7 -18 2 -2 7 -45 10 -94 4 -50 8 -99 10 -110 2 -11 7
-47 11 -80 4 -32 9 -68 11 -79 2 -11 6 -38 9 -61 4 -22 10 -56 15 -75 5 -19
12 -48 15 -65 12 -63 16 -79 20 -85 2 -4 6 -20 9 -36 14 -78 141 -434 160
-446 6 -4 8 -8 3 -8 -4 0 -1 -13 8 -30 8 -16 15 -32 15 -35 0 -7 102 -209 109
-215 3 -3 17 -25 30 -50 14 -25 42 -71 63 -103 21 -32 38 -62 38 -66 0 -4 8
-16 18 -27 9 -10 30 -39 47 -64 16 -25 35 -52 42 -60 8 -8 27 -33 44 -55 76
-99 148 -181 252 -286 31 -32 57 -61 57 -63 0 -3 -21 -27 -47 -54 -73 -74
-101 -108 -190 -222 -45 -58 -88 -112 -95 -121 -7 -9 -18 -24 -25 -35 -110
-172 -143 -226 -164 -264 -13 -25 -26 -47 -30 -50 -7 -7 -39 -76 -39 -86 0 -4
-6 -15 -14 -23 -7 -9 -37 -72 -65 -141 -29 -69 -56 -134 -61 -145 -23 -51 -87
-259 -116 -373 -20 -79 -53 -266 -48 -273 3 -5 2 -9 -3 -9 -4 0 -9 -20 -11
-44 -1 -24 -5 -54 -7 -67 -20 -99 -26 -513 -11 -664 16 -155 29 -256 41 -309
3 -12 7 -32 10 -46 13 -66 31 -143 59 -250 2 -8 9 -28 16 -45 6 -16 11 -32 11
-35 -1 -12 13 -59 29 -100 10 -25 33 -83 50 -130 17 -47 38 -95 46 -107 8 -13
12 -23 10 -23 -8 0 102 -216 152 -300 25 -41 50 -84 56 -95 7 -11 30 -46 51
-79 22 -32 45 -66 50 -74 12 -18 15 -22 97 -127 198 -252 439 -483 673 -645
28 -19 52 -37 55 -40 32 -32 287 -179 430 -247 354 -170 725 -272 1125 -309
154 -15 564 -8 664 11 9 1 45 6 81 11 73 9 83 11 90 14 3 1 20 3 37 5 18 2 48
8 65 14 18 5 47 12 63 14 17 3 37 8 45 11 8 3 26 7 40 10 14 2 59 14 100 27
41 12 80 23 86 25 14 2 128 42 164 57 14 5 30 11 35 12 6 2 35 14 65 28 70 32
134 60 140 62 3 0 21 9 40 20 19 11 37 20 40 20 12 2 77 39 94 54 16 13 18 13
12 1 -4 -9 -2 -8 7 3 8 9 18 17 22 17 5 0 58 32 119 70 61 39 120 76 131 83
11 6 22 14 25 18 3 3 23 18 45 35 22 16 51 39 65 52 14 12 28 22 31 22 3 0 17
10 31 23 14 12 52 45 84 72 152 131 435 440 488 534 5 9 12 18 15 21 4 3 15
18 26 34 111 163 212 342 303 536 45 97 145 371 155 427 2 10 10 38 17 63 8
25 15 50 16 55 1 6 3 13 4 18 3 9 4 15 13 57 4 19 10 46 13 60 5 26 11 56 19
105 3 17 7 39 9 50 4 20 17 125 22 180 3 37 17 286 16 300 0 6 -3 71 -6 145
-2 74 -7 155 -10 180 -3 25 -8 65 -11 90 -3 25 -7 56 -10 70 -3 14 -7 43 -10
65 -4 40 -10 73 -19 103 -3 9 -7 33 -10 52 -15 98 -114 415 -167 537 -11 23
-19 44 -19 47 0 15 -165 341 -180 356 -3 3 -14 21 -24 40 -21 38 -123 196
-143 220 -6 8 -50 65 -98 127 -47 61 -132 160 -189 219 l-104 108 48 50 c27
28 58 62 70 76 12 14 31 36 43 50 108 122 337 449 337 480 0 6 4 10 9 10 5 0
12 11 15 25 4 14 11 25 16 25 6 0 10 6 10 13 0 6 7 26 16 42 47 87 124 248
129 270 3 13 23 65 35 90 19 39 59 165 52 165 -4 0 -2 4 4 8 6 4 18 36 28 72
9 36 19 72 21 80 4 14 19 73 31 125 3 11 7 31 8 45 2 14 6 34 9 45 3 11 8 36
11 55 3 19 8 46 11 60 2 13 7 49 10 80 3 31 7 66 10 79 8 41 18 232 18 341 0
131 -14 349 -26 415 -4 17 -9 53 -13 80 -3 28 -8 59 -10 70 -2 11 -5 34 -8 50
-3 17 -14 68 -26 115 -11 47 -23 96 -26 110 -2 14 -18 68 -35 120 -17 52 -32
100 -33 105 -2 6 -7 19 -11 30 -4 11 -23 60 -41 108 -19 49 -37 94 -41 100 -4
7 -8 14 -8 17 -1 15 -105 218 -151 297 -30 51 -54 97 -54 102 0 6 -4 11 -10
11 -5 0 -17 16 -26 35 -9 19 -20 35 -25 35 -5 0 -9 5 -9 11 0 19 -159 229
-255 339 -79 89 -272 277 -360 350 -49 41 -91 78 -93 82 -2 4 -8 8 -13 8 -8 0
-73 47 -126 90 -7 6 -16 10 -22 10 -5 0 -11 4 -13 8 -4 10 -173 116 -228 144
-14 6 -37 20 -52 31 -16 10 -28 15 -28 11 0 -4 -8 0 -17 8 -18 15 -56 33 -193
94 -82 36 -131 56 -142 59 -5 2 -10 4 -13 5 -3 1 -8 3 -12 5 -5 1 -21 7 -36
13 -16 7 -32 12 -37 12 -5 0 -21 5 -37 12 -15 7 -32 13 -38 13 -5 1 -17 5 -25
8 -12 5 -81 25 -110 32 -66 16 -191 45 -210 49 -14 3 -38 8 -55 12 -16 3 -43
7 -60 9 -16 2 -41 6 -55 9 -23 4 -47 7 -180 22 -47 5 -437 13 -442 9z m307
-2499 c52 -12 128 -38 170 -59 22 -11 41 -19 42 -19 5 3 115 -77 151 -110 21
-19 54 -54 73 -79 19 -24 39 -49 46 -56 16 -18 89 -173 98 -208 4 -16 9 -39
12 -50 17 -69 21 -191 11 -280 -6 -53 -35 -163 -48 -180 -3 -5 -13 -26 -21
-45 -7 -19 -30 -60 -50 -90 -165 -249 -472 -384 -761 -334 -40 7 -85 17 -100
23 -16 6 -28 9 -28 7 0 -9 -128 58 -185 96 -50 34 -142 120 -180 170 -51 65
-117 202 -130 268 -3 14 -8 39 -12 55 -4 17 -7 82 -7 145 1 87 6 134 22 193
21 74 81 206 105 233 7 7 22 26 35 42 20 27 65 73 117 123 12 10 26 19 33 19
7 0 12 3 12 8 0 24 199 113 285 126 21 4 41 8 43 11 6 6 233 -2 267 -9z m5
-4629 c127 -19 253 -69 344 -137 33 -25 131 -114 135 -124 2 -5 12 -17 22 -27
11 -11 19 -23 19 -29 0 -5 4 -10 9 -10 5 0 11 -8 14 -17 4 -10 17 -36 30 -58
13 -22 30 -58 37 -80 7 -22 17 -46 23 -52 5 -7 7 -13 4 -13 -3 0 -1 -15 4 -32
35 -124 28 -287 -18 -422 -9 -28 -18 -53 -18 -56 -2 -12 -51 -99 -78 -140 -38
-56 -163 -180 -203 -200 -16 -8 -31 -18 -34 -22 -7 -9 -134 -67 -157 -72 -10
-1 -25 -6 -33 -9 -32 -13 -79 -19 -175 -22 -130 -4 -227 10 -302 45 -24 11
-47 20 -51 20 -5 0 -26 11 -46 25 -20 13 -36 22 -36 18 0 -19 -159 131 -209
197 -14 19 -28 37 -32 40 -12 11 -78 159 -95 215 -14 47 -18 92 -18 205 1 131
3 152 28 220 14 41 28 80 29 86 10 43 94 161 162 229 94 94 239 183 325 200
154 31 228 36 320 22z"/>
</g>
</svg>
